# xmcd CD database file generated by MAGIX_Freedb v0.9beta0
#
# Track frame offsets:
#      150
#      14863
#      32928
#      52729
#      72300
#      90509
#      110375
#      126791
#      143674
#      145686
#      163430
#      181575
#      198029
#      214397
#
# Disc length: 3571 seconds
#
# Revision: 3
# Processed by: cddbd v1.5.1PL0 Copyright (c) Steve Scherf et al.
# Submitted via: MAGIX_Freedb v0.9beta0
#
DISCID=c60df10e
DTITLE=Dj Bobo - Pirates Of Dance (Limited Edition)
DYEAR=2005
DGENRE=
TTITLE0=Dj Bobo - Pirates Of Dance
TTITLE1=Dj Bobo - Amazing Life
TTITLE2=Dj Bobo - Pura Pasión
TTITLE3=Dj Bobo - Dance Into The Light
TTITLE4=Dj Bobo - No Matter What People Say
TTITLE5=Dj Bobo - Give Peace A Chance
TTITLE6=Dj Bobo - Hey Nanana
TTITLE7=Dj Bobo - One Night In Heaven
TTITLE8=Dj Bobo - Ghost Ship
TTITLE9=Dj Bobo - Garunga
TTITLE10=Dj Bobo - I Need Your Love
TTITLE11=Dj Bobo - 1000 Miles
TTITLE12=Dj Bobo - Party Delight (Bonus Track)
TTITLE13=Dj Bobo - Live Medley (Bonus Track)
EXTD=
EXTT0=
EXTT1=
EXTT2=
EXTT3=
EXTT4=
EXTT5=
EXTT6=
EXTT7=
EXTT8=
EXTT9=
EXTT10=
EXTT11=
EXTT12=
EXTT13=
PLAYORDER=
